<?xml version="1.0" encoding="UTF-8"?>
<svg width="20px" height="20px" viewBox="0 0 20 20" version="1.1" xmlns="http://www.w3.org/2000/svg" xmlns:xlink="http://www.w3.org/1999/xlink">
    <title>icon/44/SPC2</title>
    <defs>
        <polygon id="path-1" points="0 0.023831331 5.13478013 0.023831331 5.13478013 5.60171996 0 5.60171996"></polygon>
    </defs>
    <g id="icon/44/SPC2" stroke="none" stroke-width="1" fill="none" fill-rule="evenodd">
        <g id="编组-4" transform="translate(1.000000, 0.000000)">
            <path d="M7.66643906,18.4954665 C7.83178698,18.700858 8.29067615,19.1219207 9.27436523,19.1219207 C9.87790864,19.1219207 10.2854667,18.745336 10.480713,18.5108524 L10.0279379,17.7865062 L10.6718608,17.3522748 C10.6734061,17.3544248 10.8771852,17.6302958 11.1961904,17.8849356 C11.4637302,18.098524 11.8732367,18.343556 12.3051166,18.2969952 C12.7883948,18.2451938 13.8783741,17.9904868 14.1545139,16.757936 L13.4419255,16.556307 L13.5779798,15.7950078 C13.5872516,15.7955453 14.6134031,15.8623295 14.9919362,15.2653704 C15.2476511,14.8621795 15.3318367,14.2046847 15.1922215,13.7019894 C15.1384045,13.5083557 15.0298299,13.2572768 14.814629,13.1267991 L13.9076006,12.9607793 L13.9716301,12.1900067 C14.1422186,12.1862442 14.547022,12.1202663 14.7008809,11.9410106 C14.716334,11.9230044 14.7323246,11.9008326 14.7445526,11.8709343 L13.5548001,11.2964158 L4.36411668,10.977209 L2.95298208,11.956934 C2.97844606,12.1934333 3.11523938,12.6881333 3.75976703,13.2506924 L3.27971386,13.8605514 L2.60918473,13.3854029 C2.44175401,13.593482 2.2282328,13.9396981 2.21889377,14.3594842 C2.20465007,14.9989728 2.42240407,15.3562748 3.00713503,15.6089662 L3.63385805,14.9497245 L4.24291082,15.4266871 C4.23767021,15.434884 3.67464074,16.3387545 3.89763534,17.1193364 C4.02723962,17.5730522 4.6911844,18.3064686 5.43649298,18.4227698 C6.06778474,18.5214008 6.65385945,18.1720941 7.17865935,17.3847262 L8.47839744,15.4351527 L7.66643906,18.4954665 Z M9.27436523,19.8990761 C7.68397495,19.8990761 7.05543787,19.0062914 6.92462422,18.7860515 C6.32921048,19.2132283 5.75415448,19.2589156 5.31656367,19.1906533 C4.1996422,19.0162351 3.34092148,17.9996243 3.15037833,17.3327905 C3.06652859,17.0392492 3.05443488,16.743222 3.08298948,16.4653354 L2.98523198,16.4320105 C1.90875725,16.065571 1.41835724,15.4014919 1.44193998,14.3422843 C1.46525397,13.2914079 2.27620453,12.604082 2.31073879,12.575393 L2.31403097,12.5726383 C2.29279979,12.517276 2.2737186,12.4615777 2.25685459,12.4055435 C2.1373284,12.008601 2.17428141,11.7373659 2.18288139,11.6870427 L2.21036099,11.5263307 L4.13299241,10.1915208 L13.7453433,10.5254416 L15.5038362,11.3747562 L15.5311142,11.5829024 C15.5746516,11.9158826 15.4906675,12.2156722 15.2880978,12.4500215 C15.2775494,12.4622496 15.2666651,12.4742761 15.2555792,12.4860339 C15.5799594,12.696666 15.8154508,13.0419415 15.9409567,13.4939776 C16.1404357,14.2118066 16.0227908,15.0909522 15.6482888,15.6815285 C15.4777003,15.9504792 15.2477854,16.1392755 15.00188,16.2715001 L14.9781628,16.5153227 C14.8381445,17.9560869 13.8698413,18.9109527 12.3878241,19.0697162 C11.9558771,19.1159411 11.5577924,19.0009164 11.2174888,18.8238779 C11.0164644,19.1126489 10.3683758,19.8990761 9.27436523,19.8990761 L9.27436523,19.8990761 Z" id="Fill-1" fill="#231815"></path>
            <path d="M8.94647111,15.335561 C12.6221533,15.2370644 13.8217151,12.1846788 13.8217151,12.1846788 L14.7985511,12.3582907 C15.022755,12.2205568 15.1934108,11.997159 15.1458422,11.6332727 L13.6500516,10.9109422 L4.24853439,10.5843447 L2.56589596,11.7525973 C2.56589596,11.7525973 2.52591952,11.9876856 2.64638633,12.3482798 L3.75954531,12.1846788 C3.75954531,12.1846788 5.27072179,15.4340575 8.94647111,15.335561" id="Fill-3" fill="#CBE3EB"></path>
            <path d="M14.7880295,12.3700377 C14.7915233,12.3678737 14.7950842,12.3659889 14.7985108,12.3638249 L13.9940774,12.2152758 C13.9839321,12.2157645 13.9775493,12.2159041 13.9775493,12.2159041 L14.7880295,12.3700377 Z" id="Fill-5" fill="#63DFD2"></path>
            <path d="M14.9459533,12.755811 L13.9775157,12.5785038 C13.9775157,12.5785038 14.4426533,12.57071 14.7879959,12.3642435 L13.9775157,12.215894 C13.9775157,12.215894 13.9839657,12.2157596 13.9940438,12.2152893 L13.8217084,12.1846519 C13.8217084,12.1846519 12.6221465,15.2371047 8.94646439,15.3355341 C5.27071507,15.4340307 3.75953859,12.1846519 3.75953859,12.1846519 L2.79587132,12.3262827 L2.6464468,12.3483201 C2.67963732,12.4475557 2.72512311,12.5564663 2.78686823,12.6724988 C2.92641622,12.9345964 3.14920927,13.2335798 3.50429409,13.5435148 L2.55943926,12.8739263 C2.55943926,12.8739263 1.90778975,13.4172027 1.8367056,14.2430016 C1.89126168,14.9747384 2.27745421,15.4179729 3.11044221,15.7015705 L3.91548029,14.8547419 C3.91548029,14.8547419 3.7330668,15.1404894 3.59842348,15.5509366 L3.91548029,15.2174189 C3.91548029,15.2174189 3.52680183,15.8262701 3.4656614,16.5437631 C3.47526918,16.650255 3.49367849,16.7573515 3.52397996,16.8634402 C3.79971659,17.828384 5.8477195,19.7189671 7.50193771,17.2376062 L7.34828038,17.8168278 C7.39988022,17.7486999 7.45107693,17.6765408 7.50193771,17.6002832 L7.3138133,18.309445 C7.49112055,18.5566942 8.043736,19.1478752 9.27433836,19.1478752 C10.0850874,19.1478752 10.6080732,18.6160206 10.8284475,18.3341028 L10.3574646,17.5805973 C10.3574646,17.5805973 10.5795858,17.8865011 10.9396425,18.1772204 C10.9451518,18.1684189 10.9482424,18.1631783 10.9482424,18.1631783 L10.3574646,17.2179204 C10.3574646,17.2179204 11.243665,18.4389149 12.3464771,18.3207325 C13.3548911,18.2126953 14.2805975,17.6431487 14.5370514,16.4623993 L13.5477186,16.1823627 C13.5477186,16.1823627 13.9901469,16.216897 14.4573001,16.0771474 L13.5477186,15.8197529 C13.5477186,15.8197529 14.8080849,15.9181823 15.3200521,15.1107926 C15.5054218,14.8185279 15.6154746,14.4360307 15.641812,14.0472179 C15.6026418,13.4891603 15.3803863,12.9729603 14.9459533,12.755811" id="Fill-7" fill="#E6F9FF"></path>
            <path d="M7.50194443,17.2376062 C5.84772621,19.7189671 3.79965612,17.828384 3.52398668,16.8634402 C3.49368521,16.7573515 3.4752759,16.650255 3.46566811,16.5437631 C3.44678849,16.7658171 3.45881501,16.9980835 3.52398668,17.2261172 C3.79125771,18.1613642 5.72342973,19.966082 7.3482871,17.8168278 L7.50194443,17.2376062 Z" id="Fill-9" fill="#F8FCFF"></path>
            <path d="M9.27433836,19.147855 C8.043736,19.147855 7.49112055,18.5566741 7.3138133,18.3094249 L7.24602133,18.5652069 C7.24602133,18.5652069 7.71861671,19.5104648 9.27433836,19.5104648 C10.3771505,19.5104648 10.9482424,18.5258351 10.9482424,18.5258351 L10.8284475,18.3341498 C10.6080732,18.6160005 10.0850874,19.147855 9.27433836,19.147855" id="Fill-11" fill="#F8FCFF"></path>
            <path d="M12.3464502,18.3207392 C11.2437053,18.4389217 10.3574378,17.2179271 10.3574378,17.2179271 L10.9482156,18.163185 C10.9482156,18.163185 10.9451921,18.1683584 10.9396828,18.1772272 C11.2990004,18.4674091 11.795716,18.7423394 12.3464502,18.683349 C13.4492624,18.5652338 14.4535779,17.8956452 14.5914463,16.4777247 L14.5370245,16.462406 C14.2805707,17.6431554 13.3549314,18.2127021 12.3464502,18.3207392" id="Fill-13" fill="#F8FCFF"></path>
            <path d="M3.91550044,14.8547553 L3.11046236,15.7015839 C2.27747437,15.4179864 1.89128184,14.9747518 1.83672576,14.2430151 C1.83363515,14.27849 1.83128359,14.314368 1.83041016,14.3509178 C1.81065709,15.237051 2.18489029,15.7491525 3.11046236,16.0641937 L3.59844363,15.5508828 C3.73308696,15.1405029 3.91550044,14.8547553 3.91550044,14.8547553" id="Fill-15" fill="#F8FCFF"></path>
            <path d="M15.6418456,14.0471977 C15.615441,14.4360105 15.5054554,14.8185078 15.3200857,15.1107725 C14.8081185,15.9182293 13.5477522,15.8197327 13.5477522,15.8197327 L14.4572665,16.0771272 C14.7784889,15.9809822 15.111402,15.8024656 15.3200857,15.4734495 C15.5631693,15.0900788 15.6771861,14.5515727 15.6418456,14.0471977" id="Fill-17" fill="#F8FCFF"></path>
            <g id="编组" transform="translate(0.000000, 6.461598)">
                <mask id="mask-2" fill="white">
                    <use xlink:href="#path-1"></use>
                </mask>
                <g id="Clip-20"></g>
                <path d="M4.32964289,4.02906712 C3.5336079,4.99387657 1.93508795,5.54152015 0.976056604,5.17783536 C0.517167429,5.00388747 0.29370251,4.65243077 0.31177589,4.13340897 C0.399119364,1.63625905 2.92744419,0.499181392 3.28998679,0.349017804 L4.15656843,0.562068693 C4.35839904,0.876102076 5.43500814,2.68928541 4.32964289,4.02906712 M4.98774237,1.64264184 C4.77126493,0.897736383 4.39555361,0.358827148 4.37969741,0.336185032 L4.34617096,0.288616432 L3.26929311,0.023831331 L3.224412,0.0404937783 C3.19249804,0.0523859283 2.43502856,0.338402212 1.65558883,0.981115807 C0.615126494,1.83903028 0.0430267391,2.92531435 0.00116905881,4.12252463 C-0.0215402445,4.77047884 0.285640035,5.2484492 0.865802265,5.46848757 C1.10492182,5.55905603 1.37488034,5.60171996 1.66029194,5.60171996 C2.67307312,5.60171996 3.87848025,5.06442322 4.56943432,4.22686649 C5.13508409,3.54122022 5.27973832,2.64756211 4.98774237,1.64264184" id="Fill-19" fill="#231815" mask="url(#mask-2)"></path>
            </g>
            <path d="M3.29001367,6.81058932 C2.92747106,6.96075291 0.399146239,8.09783057 0.311802765,10.5949805 C0.293662197,11.1140695 0.517127116,11.465459 0.976083479,11.6394069 C1.93511482,12.0030917 3.53363477,11.4555153 4.32966976,10.4906386 C5.43503502,9.15085693 4.35835873,7.33774078 4.15652812,7.0237074 L3.29001367,6.81058932 Z" id="Fill-21" fill="#FFD254"></path>
            <path d="M4.13766193,7.63763124 C3.77545526,7.8339525 1.24558513,9.26087611 1.04321702,10.8877491 C1.00109059,11.2259027 1.20359307,11.3899069 1.64494637,11.3749913 C2.56742783,11.344018 4.1589603,10.5517455 4.98388582,9.71297937 C6.12936189,8.54828774 5.15958058,7.68130298 4.97649522,7.53543938 L4.13766193,7.63763124 Z" id="Fill-23" fill="#FFA154"></path>
            <path d="M3.72876681,8.28870965 C3.45034269,8.44471853 1.50896601,9.57668996 1.4419131,10.8148845 C1.42800533,11.0722118 1.59960167,11.1926786 1.9519318,11.172724 C2.68837166,11.1312022 3.91588341,10.499037 4.52708617,9.84658129 C5.37586317,8.94062791 4.54919079,8.30187836 4.39418971,8.19484901 L3.72876681,8.28870965 Z" id="Fill-25" fill="#231815"></path>
            <path d="M13.8696465,7.02369396 L14.7361609,6.81057588 C15.0987707,6.96073947 17.6270956,8.09781713 17.714439,10.5949671 C17.7325124,11.114056 17.5090475,11.4654456 17.0502255,11.6393934 C16.0910598,12.0030782 14.4925398,11.4555018 13.696572,10.4906924 C12.5912068,9.15084349 13.6678159,7.33772734 13.8696465,7.02369396 M13.4567134,10.6884918 C14.1477347,11.5260485 15.3531418,12.0633452 16.3658558,12.0633452 C16.6512674,12.0633452 16.9213603,12.0206813 17.1604127,11.9300457 C17.7405749,11.7100745 18.0477552,11.2321041 18.0250459,10.5840827 C17.9831882,9.38693962 17.4110884,8.30065555 16.3706261,7.44267389 C15.5911864,6.80002748 14.8337169,6.51394401 14.8018029,6.50205186 L14.7569218,6.48538941 L13.680044,6.7502417 L13.6465175,6.7978103 C13.6305941,6.82045242 13.25495,7.35929446 13.0384726,8.10426711 C12.7464766,9.10918737 12.8911308,10.0028455 13.4567134,10.6884918" id="Fill-27" fill="#231815"></path>
            <path d="M14.7361945,6.81058932 C15.0987371,6.96075291 17.627062,8.09783057 17.7144054,10.5949805 C17.732546,11.1140695 17.5090811,11.465459 17.0501919,11.6394069 C16.0910934,12.0030917 14.4925734,11.4555153 13.6965385,10.4906386 C12.5911732,9.15085693 13.6678495,7.33774078 13.8696801,7.0237074 L14.7361945,6.81058932 Z" id="Fill-29" fill="#FFD254"></path>
            <path d="M13.8885463,7.63763124 C14.250753,7.8339525 16.7806231,9.26087611 16.9829912,10.8877491 C17.0251176,11.2259027 16.8226151,11.3899069 16.3812618,11.3749913 C15.4587804,11.344018 13.8672479,10.5517455 13.0423224,9.71297937 C11.8968463,8.54828774 12.8666276,7.68130298 13.049713,7.53543938 L13.8885463,7.63763124 Z" id="Fill-31" fill="#FFA154"></path>
            <path d="M14.2974414,8.28870965 C14.5758655,8.44471853 16.5172422,9.57668996 16.5842951,10.8148845 C16.5982029,11.0722118 16.4266065,11.1926786 16.0742764,11.172724 C15.3378365,11.1312022 14.1103248,10.499037 13.499122,9.84658129 C12.650345,8.94062791 13.4770846,8.30187836 13.6320185,8.19484901 L14.2974414,8.28870965 Z" id="Fill-33" fill="#231815"></path>
            <path d="M11.5155316,13.623078 C9.97035835,14.6697215 7.922557,14.6697215 6.37745095,13.623078 C4.38709474,12.274965 3.95333361,9.76867763 3.91799309,8.01737379 C3.88372758,9.75799486 4.19346097,12.631528 6.37745095,14.1109249 C7.922557,15.1575684 9.97035835,15.1575684 11.5155316,14.1109249 C13.6996559,12.631528 14.0093222,9.75792767 13.9750566,8.01737379 C13.9397161,9.76861045 13.5058878,12.2748978 11.5155316,13.623078" id="Fill-35" fill="#FFD6A8"></path>
            <path d="M6.37747782,13.623078 C7.92258388,14.6697215 9.97038522,14.6697215 11.5155585,13.623078 C13.5059147,12.2748978 13.939743,9.76861045 13.9750835,8.01737379 C13.9580851,7.15616714 13.8570354,6.57217523 13.8570354,6.57217523 L13.6404236,5.82384322 L4.25261266,5.82384322 L4.03600084,6.57217523 C4.03600084,6.57217523 3.93495116,7.15623432 3.91801997,8.01744098 C3.95336048,9.76867763 4.38712161,12.274965 6.37747782,13.623078" id="Fill-37" fill="#FFECC8"></path>
            <path d="M4.18785755,6.60666247 C4.16944824,6.71940274 3.97070824,7.99730495 4.13780302,9.50283769 C4.29670096,10.9350019 4.82942896,12.8745645 6.46463317,13.9822142 C7.94906911,14.9877391 9.94392687,14.9877391 11.4283628,13.9822142 C13.063567,12.8746317 13.596295,10.9350019 13.7552601,9.50283769 C13.9223549,7.99730495 13.7236149,6.71940274 13.7052056,6.60666247 L13.5235312,5.97926757 L4.3693976,5.97926757 L4.18785755,6.60666247 Z M8.94646439,15.0467296 C8.01551734,15.0467296 7.08477184,14.7777117 6.29028216,14.2395415 C4.91650369,13.3090647 4.06503919,11.6802433 3.82800244,9.5292423 C3.65035925,7.91768801 3.87328667,6.60088436 3.88289445,6.54565641 L3.88672413,6.52899396 L4.1357874,5.66839199 L13.7572086,5.66839199 L14.0101687,6.54565641 C14.0197093,6.60088436 14.2427039,7.91768801 14.0650607,9.52930948 C13.8279568,11.6803105 12.9765595,13.3090647 11.6026466,14.2396087 C10.8084257,14.7775773 9.87734427,15.0467296 8.94646439,15.0467296 L8.94646439,15.0467296 Z" id="Fill-39" fill="#231815"></path>
            <path d="M9.51822149,7.90257759 C9.53277738,7.9104385 9.54968098,7.91924004 9.56780541,7.9284447 L9.6729834,7.66795958 C9.64697063,7.72332191 9.5992649,7.80764195 9.51822149,7.90257759" id="Fill-41" fill="#ED4C77"></path>
            <path d="M6.81550535,7.86091475 C6.83337716,7.85318822 6.85124898,7.84539449 6.86938955,7.83706327 C6.77774609,7.69791839 6.72574313,7.5731516 6.70021196,7.50139558 L6.81550535,7.86091475 Z" id="Fill-43" fill="#ED4C77"></path>
            <path d="M13.0716698,7.62214056 C13.10224,7.59229929 13.132004,7.56039453 13.1605586,7.52547389 C12.9663873,7.50714056 12.8387315,7.46737865 12.8387315,7.46737865 L13.0716698,7.62214056 Z" id="Fill-45" fill="#ED4C77"></path>
            <path d="M11.2816485,8.06521385 C11.3106663,8.0503526 11.3395419,8.0358757 11.3688443,8.01986143 L11.2140824,7.91045194 L11.2816485,8.06521385 Z" id="Fill-47" fill="#ED4C77"></path>
            <path d="M14.2124092,3.86353316 L13.7692418,3.9669344 L14.2566856,4.01121082 C14.8138698,4.27169594 15.0832908,4.78399901 15.1356297,5.33600976 C15.1991217,4.63934477 14.9514021,3.92332985 14.2566856,3.5985465 L14.2144248,3.59471682 C14.2290716,3.75321164 14.2124092,3.86353316 14.2124092,3.86353316" id="Fill-49" fill="#ED4C77"></path>
            <path d="M6.75732405,7.17392792 L6.71027643,7.02752316 C6.71027643,7.02752316 6.72466929,7.08215411 6.75732405,7.17392792" id="Fill-51" fill="#ED4C77"></path>
            <path d="M6.75732405,7.58663255 L6.71027643,7.44022779 C6.71027643,7.44022779 6.72466929,7.49485875 6.75732405,7.58663255" id="Fill-53" fill="#ED4C77"></path>
            <path d="M15.4976281,4.56762235 C15.3738019,4.03449122 15.0709888,3.60368633 14.6353464,3.33298875 C14.6388402,3.08634421 14.5927497,2.63793625 14.268907,2.25087029 C13.9636079,1.88584175 13.5025016,1.6805174 12.8970097,1.63973472 L12.892441,1.58148334 L12.8679848,1.52175384 C12.8462833,1.46854151 12.3222897,0.219395456 11.1172185,0.200650203 C10.266493,0.187481494 9.81358353,0.421830754 9.62902005,0.55298034 C9.20264952,0.166720622 8.57491869,-0.104312897 7.71001674,0.0387960263 C6.96504409,0.162017512 6.47215815,0.564334991 6.16101382,1.0150945 C6.10800305,1.00965233 5.04725015,0.911088583 4.31820089,1.6340238 C3.97279104,1.97661178 3.7658542,2.43308221 3.69940597,2.99691793 L3.58915163,3.05597556 C3.5481002,3.0779458 2.58167825,3.60825506 2.37225547,4.81252001 C2.24325588,5.55399892 2.43037248,6.30448092 2.87266639,6.82000898 C3.15203114,7.14559858 3.66157953,7.52755831 4.52016588,7.54301138 C4.66233418,7.76956692 4.97038789,8.15911881 5.49263468,8.34462291 C5.97470347,8.51588331 6.50487836,8.46750846 7.06938595,8.20117805 C7.3635319,8.39635713 7.74589475,8.53254576 8.23065103,8.53254576 C8.68154492,8.53254576 9.03407662,8.4228961 9.30443826,8.26238567 C9.55874215,8.44809134 9.96314243,8.63104232 10.4435315,8.63104232 C10.7998257,8.63104232 11.1980448,8.53026139 11.6076185,8.25546538 L11.6210559,8.2463951 C11.7577821,8.2744122 12.0126906,8.31364957 12.3068366,8.29544182 C12.9169644,8.25768256 13.3868051,7.99498027 13.6656995,7.53562078 L13.684176,7.50518494 C14.1159887,7.44995699 14.6135777,7.26996225 14.9933203,6.79736686 C15.4750531,6.1978547 15.6730541,5.32253871 15.4976281,4.56762235" id="Fill-55" fill="#231815"></path>
            <path d="M6.11850442,1.42740273 C6.11850442,1.42740273 3.96407685,1.20252688 4.09670456,3.62644266 C4.21744011,1.64159581 6.11850442,1.84013424 6.11850442,1.84013424 L6.11850442,1.42740273 Z" id="Fill-57" fill="#81A7D3"></path>
            <path d="M12.7501652,2.04770265 L12.5544486,2.56376821 L12.4843051,1.67844132 C12.4843051,1.67844132 12.0559861,0.629782128 11.1107282,0.615068112 C10.1654702,0.600286909 9.8257713,0.925204632 9.8257713,0.925204632 L9.86655399,1.30575343 C9.98110831,1.22418806 10.3494962,1.01584028 11.1107282,1.02773243 C12.0559861,1.04251364 12.4843051,2.09110564 12.4843051,2.09110564 L12.5544486,2.97643253 L12.7501652,2.46043416 C13.8142103,2.48865282 14.1154109,3.05094323 14.1943559,3.45500758 L14.2124293,3.86350629 C14.2124293,3.86350629 14.5040222,2.10158685 12.7501652,2.04770265" id="Fill-59" fill="#81A7D3"></path>
            <path d="M7.77765418,0.447670985 C6.25888554,0.698951441 6.1185313,2.26925273 6.1185313,2.26925273 L6.1185313,2.68198424 C6.1185313,2.68198424 6.25888554,1.11168295 7.77765418,0.860402493 C9.47077383,0.580231503 9.91441149,2.16504525 9.91441149,2.16504525 L9.85212888,1.58407677 C9.68187629,1.18424522 9.12650617,0.224474815 7.77765418,0.447670985" id="Fill-61" fill="#81A7D3"></path>
            <path d="M3.78492867,3.42129972 C3.78492867,3.42129972 2.95778597,3.86439988 2.78061309,4.88349666 C2.74701945,5.0767273 2.73848666,5.27842354 2.7567616,5.47823853 C2.76233815,5.41696372 2.77013187,5.35615923 2.78061309,5.29616098 C2.95778597,4.2770642 3.78492867,3.83403122 3.78492867,3.83403122 L4.10984639,4.21800657 C4.09493081,4.06307269 4.08915271,3.91848565 4.09096676,3.78296889 L3.78492867,3.42129972 Z" id="Fill-63" fill="#81A7D3"></path>
            <path d="M12.8387449,7.0546673 C12.8387449,7.0546673 14.0055865,7.36480382 14.6702704,6.53772831 C14.9288742,6.21583401 15.09523,5.77978852 15.1356767,5.33601648 C15.0832706,4.78400572 14.8138496,4.27170265 14.2566654,4.01121754 L13.7692888,3.96694112 L14.212389,3.86353988 C14.212389,3.86353988 14.3951384,2.35619308 12.7501921,2.46040056 L12.5544755,2.97646612 L12.484332,2.09113923 C12.484332,2.09113923 12.056013,1.04254723 11.1106879,1.02776603 C10.3494559,1.01580669 9.98113519,1.22422166 9.86658086,1.30578702 L9.91441821,1.75231374 C9.91441821,1.75231374 9.89553858,1.68613426 9.8521356,1.58407677 L9.91441821,2.16504525 C9.91441821,2.16504525 9.47078055,0.580231503 7.7776609,0.860402493 C6.25882507,1.11168295 6.11853802,2.68198424 6.11853802,2.68198424 L6.11853802,2.26925273 L6.11853802,1.84012752 C6.11853802,1.84012752 4.21747371,1.64165628 4.09673815,3.62650313 C4.09996314,3.68468732 4.10392719,3.7440137 4.10983967,3.80535569 L4.09096005,3.78298232 C4.08914599,3.91849908 4.0949241,4.06308613 4.10983967,4.21802001 L3.78492195,3.83397748 C3.78492195,3.83397748 2.95784644,4.27707764 2.78060637,5.29617442 C2.77019234,5.35617267 2.76233143,5.41697716 2.75675489,5.47825197 C2.83502808,6.33247114 3.40591846,7.1524248 4.62677867,7.12850613 L4.73011271,6.36048824 L4.80401873,7.20234496 C4.80401873,7.20234496 5.39271375,8.47722374 6.81553894,7.86091475 L6.70024555,7.50139558 C6.68606904,7.4616207 6.67982062,7.4378364 6.67982062,7.4378364 L6.70024555,7.50139558 C6.72577672,7.5731516 6.77777968,7.69791839 6.86935596,7.83706327 C6.8897137,7.82765705 6.91027301,7.81804926 6.93083232,7.80790398 L6.70024555,7.08873126 C6.68606904,7.04888919 6.67982062,7.02517208 6.67982062,7.02517208 L6.70024555,7.08873126 C6.78308748,7.32146802 7.14589883,8.1180405 8.23063759,8.1180405 C9.25470623,8.1180405 9.55711622,7.46907849 9.62900661,7.25522136 L9.64855811,7.18763094 C9.64855811,7.18763094 9.64311594,7.21309493 9.62900661,7.25522136 L9.45653685,7.85218041 C9.45653685,7.85218041 9.47796959,7.87213503 9.51821478,7.90257087 C9.57619741,7.80763523 9.61032855,7.72331519 9.62900661,7.66795286 L9.64855811,7.60029526 C9.64855811,7.60029526 9.64311594,7.62582643 9.62900661,7.66795286 L9.55368966,7.92843798 C9.79146548,8.09680932 10.4434509,8.45028164 11.2460031,7.99159403 L11.2140891,7.91043179 L11.2871889,7.96787692 C11.3168857,7.9500051 11.3465824,7.93146141 11.376548,7.91130522 L11.2140891,7.49776746 L11.627694,7.82268519 C11.627694,7.82268519 12.5077803,8.0641563 13.0716832,7.59841402 L12.8387449,7.46739881 C12.8387449,7.46739881 12.9663336,7.50105964 13.160572,7.5165799 C13.2153297,7.45967227 13.2661904,7.39490373 13.3114075,7.3205274 L12.8387449,7.0546673 Z" id="Fill-65" fill="#0958B4"></path>
            <path d="M9.66001822,7.75505045 C9.69267298,7.65868927 9.70505394,7.60028855 9.70505394,7.60028855 L9.66001822,7.75505045 Z" id="Fill-67" fill="#ED4C77"></path>
            <path d="M9.66001822,7.34234582 C9.69267298,7.24598463 9.70505394,7.18758391 9.70505394,7.18758391 L9.66001822,7.34234582 Z" id="Fill-69" fill="#ED4C77"></path>
            <path d="M6.99371291,9.70292144 C6.97792389,9.82681479 6.90112882,9.91906294 6.82225095,9.90891766 C6.74344026,9.89890675 6.6925123,9.79026491 6.70830131,9.66637155 C6.72409032,9.54247819 6.80088539,9.45023005 6.87976327,9.46037533 C6.95857396,9.47038623 7.00956911,9.57902808 6.99371291,9.70292144 M6.80316976,9.18638557 C6.50136446,9.13371073 6.20002948,9.41515828 6.13042345,9.81485546 C6.06075023,10.2145526 6.24894182,10.5812608 6.55081431,10.6339357 C6.8526196,10.6866105 7.1538874,10.405163 7.22356062,10.0054658 C7.29323384,9.60570143 7.10497506,9.23899321 6.80316976,9.18638557" id="Fill-71" fill="#231815"></path>
            <path d="M11.5427626,9.70292144 C11.5269736,9.82681479 11.4501785,9.91906294 11.3713678,9.90891766 C11.2925571,9.89890675 11.241562,9.79026491 11.2574182,9.66637155 C11.2732072,9.54247819 11.3500023,9.45023005 11.428813,9.46037533 C11.5076908,9.47038623 11.558686,9.57902808 11.5427626,9.70292144 M11.3522195,9.18638557 C11.0504142,9.13371073 10.7491464,9.41515828 10.6794731,9.81485546 C10.6097999,10.2145526 10.7980587,10.5812608 11.099864,10.6339357 C11.4017365,10.6866105 11.7030043,10.405163 11.7726775,10.0054658 C11.8422835,9.60570143 11.6540919,9.23899321 11.3522195,9.18638557" id="Fill-73" fill="#231815"></path>
            <path d="M10.0233691,12.6365939 C9.66096089,13.4666256 8.3749962,13.5062661 7.94828974,12.7117093 C7.83004011,12.491335 7.49437242,12.6873203 7.61282361,12.907829 C8.16671561,13.9394226 9.87931957,13.9310914 10.3588352,12.8327136 C10.4580037,12.6057549 10.1232766,12.407754 10.0233691,12.6365939" id="Fill-75" fill="#231815"></path>
            <polygon id="Fill-77" fill="#231815" points="8.7877613 14.8955514 9.15043828 14.8955514 9.15043828 13.4816622 8.7877613 13.4816622"></polygon>
        </g>
    </g>
</svg>